<svg xmlns="http://www.w3.org/2000/svg" viewBox="0 0 512 512" role="img" aria-label="Trellis">
  <defs>
    <linearGradient id="bg" x1="0" y1="0" x2="1" y2="1">
      <stop offset="0" stop-color="#3987e5"/>
      <stop offset="1" stop-color="#1c5cab"/>
    </linearGradient>
  </defs>
  <rect width="512" height="512" rx="112" fill="url(#bg)"/>
  <g stroke="#ffffff" stroke-width="14" stroke-linecap="round" opacity="0.95">
    <line x1="128" y1="120" x2="128" y2="392"/>
    <line x1="222" y1="120" x2="222" y2="392"/>
    <line x1="316" y1="120" x2="316" y2="392"/>
    <line x1="384" y1="120" x2="384" y2="392"/>
    <line x1="96" y1="168" x2="410" y2="168"/>
    <line x1="96" y1="256" x2="410" y2="256"/>
    <line x1="96" y1="344" x2="410" y2="344"/>
  </g>
  <g fill="#ffffff">
    <circle cx="128" cy="168" r="12"/>
    <circle cx="222" cy="168" r="12"/>
    <circle cx="316" cy="168" r="12"/>
    <circle cx="384" cy="168" r="12"/>
    <circle cx="128" cy="256" r="12"/>
    <circle cx="222" cy="256" r="12"/>
    <circle cx="316" cy="256" r="12"/>
    <circle cx="384" cy="256" r="12"/>
    <circle cx="128" cy="344" r="12"/>
    <circle cx="222" cy="344" r="12"/>
    <circle cx="316" cy="344" r="12"/>
    <circle cx="384" cy="344" r="12"/>
  </g>
</svg>
